<?xml version="1.0" encoding="UTF-8"?>
<svg xmlns="http://www.w3.org/2000/svg" xmlns:xlink="http://www.w3.org/1999/xlink" width="465.8pt" height="90.5pt" viewBox="0 0 465.8 90.5" version="1.1">
<g id="surface1">
<path style=" stroke:none;fill-rule:evenodd;fill:rgb(0%,37.255859%,62.693787%);fill-opacity:1;" d="M 438.109375 90.492188 L 15.113281 90.492188 C 11.785156 90.492188 8.742188 89.480469 6.1875 87.546875 C 5.703125 87.183594 5.226563 86.769531 4.761719 86.316406 C 4.320313 85.890625 3.890625 85.417969 3.480469 84.914063 L 3.476563 84.921875 L 3.464844 84.90625 L 3.464844 84.898438 C 1.34375 82.285156 0.199219 79.296875 0.0859375 76.132813 C 0.0625 75.527344 0.0820313 74.90625 0.136719 74.277344 C 0.195313 73.632813 0.292969 73.007813 0.417969 72.421875 L 0.429688 72.402344 L 0.433594 72.378906 L 0.425781 72.378906 L 13.808594 11.195313 C 14.820313 6.566406 17.878906 2.960938 21.96875 1.191406 L 21.96875 1.183594 C 22.746094 0.847656 23.578125 0.574219 24.453125 0.375 C 25.492188 0.136719 26.59375 0.0117188 27.734375 0.0078125 L 27.734375 0 L 450.765625 0 C 454.09375 0 457.136719 1.011719 459.691406 2.945313 C 460.175781 3.3125 460.652344 3.722656 461.117188 4.171875 C 461.558594 4.601563 461.988281 5.070313 462.398438 5.574219 L 462.402344 5.570313 L 462.414063 5.585938 L 462.414063 5.59375 C 464.535156 8.207031 465.679688 11.195313 465.792969 14.355469 C 465.8125 14.960938 465.796875 15.582031 465.738281 16.210938 C 465.679688 16.859375 465.585938 17.480469 465.460938 18.070313 L 465.449219 18.089844 L 465.445313 18.109375 L 465.453125 18.113281 L 452.070313 79.296875 C 451.058594 83.921875 447.996094 87.527344 443.90625 89.296875 L 443.90625 89.308594 C 443.128906 89.644531 442.296875 89.917969 441.425781 90.117188 C 440.382813 90.351563 439.285156 90.480469 438.140625 90.480469 L 438.140625 90.492188 L 438.105469 90.492188 Z M 438.109375 90.492188 "/>
<path style=" stroke:none;fill-rule:evenodd;fill:rgb(100%,89.451599%,0%);fill-opacity:1;" d="M 15.113281 85.609375 L 438.140625 85.609375 L 438.140625 85.617188 C 438.886719 85.617188 439.625 85.527344 440.335938 85.367188 C 440.894531 85.238281 441.445313 85.054688 441.980469 84.824219 L 441.984375 84.832031 C 444.640625 83.679688 446.632813 81.3125 447.300781 78.265625 L 460.683594 17.082031 L 460.691406 17.070313 L 460.695313 17.058594 L 460.691406 17.058594 C 460.789063 16.59375 460.859375 16.164063 460.894531 15.769531 C 460.929688 15.363281 460.941406 14.941406 460.925781 14.527344 C 460.851563 12.441406 460.078125 10.445313 458.640625 8.671875 L 458.636719 8.675781 L 458.625 8.664063 L 458.625 8.652344 C 458.34375 8.308594 458.039063 7.976563 457.71875 7.664063 C 457.421875 7.375 457.097656 7.097656 456.753906 6.839844 C 455.058594 5.554688 453.019531 4.882813 450.765625 4.882813 L 27.734375 4.882813 L 27.734375 4.875 C 26.992188 4.875 26.25 4.960938 25.539063 5.125 C 24.984375 5.25 24.433594 5.433594 23.894531 5.667969 L 23.890625 5.65625 C 21.238281 6.808594 19.242188 9.175781 18.578125 12.222656 L 5.195313 73.40625 L 5.1875 73.417969 L 5.183594 73.429688 L 5.1875 73.429688 C 5.089844 73.894531 5.019531 74.324219 4.984375 74.71875 C 4.949219 75.128906 4.9375 75.546875 4.949219 75.960938 C 5.027344 78.046875 5.800781 80.042969 7.238281 81.816406 L 7.242188 81.8125 L 7.253906 81.828125 L 7.253906 81.835938 C 7.535156 82.183594 7.839844 82.515625 8.160156 82.824219 C 8.457031 83.113281 8.78125 83.390625 9.125 83.652344 C 10.820313 84.933594 12.859375 85.605469 15.113281 85.605469 Z M 15.113281 85.609375 "/>
<path style=" stroke:none;fill-rule:evenodd;fill:rgb(0%,37.255859%,62.693787%);fill-opacity:1;" d="M 440.457031 13.28125 C 441.488281 13.28125 442.496094 13.546875 443.480469 14.074219 C 444.460938 14.605469 445.226563 15.359375 445.773438 16.347656 C 446.320313 17.328125 446.597656 18.359375 446.597656 19.429688 C 446.597656 20.488281 446.328125 21.503906 445.785156 22.480469 C 445.246094 23.457031 444.488281 24.214844 443.515625 24.753906 C 442.539063 25.296875 441.523438 25.566406 440.457031 25.566406 C 439.394531 25.566406 438.375 25.296875 437.402344 24.753906 C 436.425781 24.214844 435.667969 23.457031 435.125 22.480469 C 434.582031 21.503906 434.3125 20.488281 434.3125 19.429688 C 434.3125 18.359375 434.585938 17.328125 435.136719 16.347656 C 435.6875 15.359375 436.453125 14.605469 437.4375 14.074219 C 438.417969 13.546875 439.425781 13.28125 440.457031 13.28125 Z M 440.457031 14.296875 C 439.59375 14.296875 438.753906 14.519531 437.9375 14.960938 C 437.121094 15.402344 436.480469 16.039063 436.019531 16.859375 C 435.558594 17.679688 435.328125 18.535156 435.328125 19.429688 C 435.328125 20.3125 435.554688 21.160156 436.007813 21.96875 C 436.460938 22.78125 437.097656 23.414063 437.910156 23.867188 C 438.722656 24.320313 439.570313 24.550781 440.457031 24.550781 C 441.34375 24.550781 442.191406 24.320313 443.007813 23.867188 C 443.820313 23.414063 444.453125 22.78125 444.902344 21.96875 C 445.351563 21.160156 445.578125 20.3125 445.578125 19.429688 C 445.578125 18.535156 445.347656 17.679688 444.890625 16.859375 C 444.433594 16.039063 443.792969 15.402344 442.972656 14.960938 C 442.152344 14.519531 441.3125 14.296875 440.457031 14.296875 Z M 437.761719 22.820313 L 437.761719 16.210938 L 440.03125 16.210938 C 440.8125 16.210938 441.371094 16.269531 441.71875 16.394531 C 442.066406 16.515625 442.34375 16.730469 442.550781 17.03125 C 442.757813 17.339844 442.859375 17.660156 442.859375 18.003906 C 442.859375 18.484375 442.6875 18.90625 442.34375 19.265625 C 441.996094 19.621094 441.539063 19.824219 440.96875 19.867188 C 441.203125 19.964844 441.390625 20.082031 441.53125 20.21875 C 441.796875 20.476563 442.121094 20.914063 442.507813 21.527344 L 443.316406 22.820313 L 442.011719 22.820313 L 441.425781 21.777344 C 440.964844 20.960938 440.59375 20.449219 440.3125 20.242188 C 440.117188 20.089844 439.832031 20.015625 439.457031 20.015625 L 438.828125 20.015625 L 438.828125 22.820313 Z M 438.828125 19.101563 L 440.125 19.101563 C 440.742188 19.101563 441.164063 19.007813 441.390625 18.824219 C 441.613281 18.640625 441.726563 18.398438 441.726563 18.089844 C 441.726563 17.898438 441.671875 17.722656 441.5625 17.566406 C 441.457031 17.414063 441.304688 17.296875 441.113281 17.222656 C 440.917969 17.144531 440.5625 17.109375 440.042969 17.109375 L 438.828125 17.109375 Z M 438.828125 19.101563 "/>
<path style=" stroke:none;fill-rule:evenodd;fill:rgb(0%,37.255859%,62.693787%);fill-opacity:1;" d="M 53.984375 72.773438 L 42.566406 72.773438 L 52.242188 26.625 L 36 26.625 L 37.921875 17.359375 L 81.582031 17.359375 L 79.660156 26.625 L 63.621094 26.625 Z M 77.15625 72.773438 L 88.726563 17.359375 L 129.804688 17.359375 L 127.882813 26.625 L 98.210938 26.625 L 95.566406 39.203125 L 124.246094 39.203125 L 122.324219 48.464844 L 93.628906 48.464844 L 90.160156 63.507813 L 122.398438 63.507813 L 120.4375 72.773438 Z M 129.09375 72.773438 L 140.695313 17.359375 L 152.070313 17.359375 L 142.433594 63.507813 L 170.625 63.507813 L 168.703125 72.773438 Z M 176.070313 72.773438 L 187.640625 17.359375 L 228.71875 17.359375 L 226.796875 26.625 L 197.125 26.625 L 194.476563 39.203125 L 223.160156 39.203125 L 221.238281 48.464844 L 192.542969 48.464844 L 189.074219 63.507813 L 221.3125 63.507813 L 219.351563 72.773438 Z M 239.078125 72.773438 L 227.660156 72.773438 L 239.269531 17.359375 L 261.796875 17.359375 C 265.796875 17.359375 268.96875 17.835938 271.292969 18.78125 C 273.628906 19.722656 275.472656 21.28125 276.839844 23.464844 C 278.195313 25.644531 278.878906 28.25 278.878906 31.269531 C 278.878906 34.070313 278.335938 36.789063 277.253906 39.433594 C 276.167969 42.082031 274.839844 44.195313 273.265625 45.78125 C 271.691406 47.371094 269.988281 48.582031 268.183594 49.394531 C 266.363281 50.207031 263.925781 50.839844 260.84375 51.265625 C 259.0625 51.523438 255.707031 51.640625 250.792969 51.640625 L 243.503906 51.640625 Z M 245.386719 42.453125 L 248.910156 42.453125 C 254.921875 42.453125 258.945313 42.082031 260.957031 41.316406 C 262.972656 40.570313 264.570313 39.359375 265.71875 37.691406 C 266.878906 36.027344 267.460938 34.210938 267.460938 32.210938 C 267.460938 30.882813 267.164063 29.785156 266.570313 28.933594 C 265.976563 28.070313 265.152344 27.449219 264.082031 27.0625 C 263.011719 26.664063 260.625 26.46875 256.921875 26.46875 L 248.753906 26.46875 Z M 309.878906 60.527344 L 287.910156 60.527344 L 281.265625 72.773438 L 269.550781 72.773438 L 300.875 17.359375 L 313.542969 17.359375 L 322.535156 72.773438 L 311.722656 72.773438 Z M 308.472656 51.304688 L 305.261719 28.996094 L 291.882813 51.304688 Z M 331.230469 54.8125 L 342.082031 54.246094 C 342.222656 57.703125 342.816406 60.039063 343.847656 61.238281 C 345.511719 63.210938 348.597656 64.191406 353.074219 64.191406 C 356.800781 64.191406 359.496094 63.523438 361.164063 62.191406 C 362.828125 60.851563 363.664063 59.238281 363.664063 57.355469 C 363.664063 55.71875 362.980469 54.324219 361.613281 53.1875 C 360.660156 52.363281 358.027344 51.007813 353.730469 49.148438 C 349.433594 47.277344 346.300781 45.730469 344.324219 44.480469 C 342.351563 43.226563 340.792969 41.613281 339.65625 39.628906 C 338.519531 37.628906 337.953125 35.308594 337.953125 32.636719 C 337.953125 27.964844 339.640625 24.109375 343.023438 21.023438 C 346.402344 17.953125 351.292969 16.417969 357.691406 16.417969 C 364.195313 16.417969 369.226563 17.941406 372.785156 20.984375 C 376.347656 24.042969 378.308594 28.09375 378.667969 33.164063 L 367.742188 33.65625 C 367.457031 31.011719 366.503906 28.972656 364.867188 27.566406 C 363.226563 26.160156 360.8125 25.449219 357.613281 25.449219 C 354.464844 25.449219 352.210938 26.003906 350.867188 27.113281 C 349.511719 28.222656 348.839844 29.617188 348.839844 31.308594 C 348.839844 32.894531 349.460938 34.210938 350.699219 35.242188 C 351.925781 36.300781 354.660156 37.746094 358.890625 39.589844 C 365.277344 42.335938 369.328125 44.558594 371.070313 46.273438 C 373.664063 48.800781 374.964844 52.039063 374.964844 55.988281 C 374.964844 60.875 373.03125 65.058594 369.160156 68.515625 C 365.289063 71.984375 359.910156 73.714844 352.996094 73.714844 C 348.234375 73.714844 344.105469 72.914063 340.625 71.3125 C 337.125 69.714844 334.664063 67.496094 333.230469 64.644531 C 331.800781 61.792969 331.128906 58.53125 331.230469 54.8125 Z M 382.863281 54.8125 L 393.710938 54.246094 C 393.851563 57.703125 394.445313 60.039063 395.480469 61.238281 C 397.144531 63.210938 400.226563 64.191406 404.703125 64.191406 C 408.433594 64.191406 411.128906 63.523438 412.792969 62.191406 C 414.457031 60.851563 415.296875 59.238281 415.296875 57.355469 C 415.296875 55.71875 414.613281 54.324219 413.246094 53.1875 C 412.289063 52.363281 409.65625 51.007813 405.363281 49.148438 C 401.066406 47.277344 397.929688 45.730469 395.957031 44.480469 C 393.984375 43.226563 392.421875 41.613281 391.285156 39.628906 C 390.152344 37.628906 389.582031 35.308594 389.582031 32.636719 C 389.582031 27.964844 391.273438 24.109375 394.652344 21.023438 C 398.035156 17.953125 402.921875 16.417969 409.320313 16.417969 C 415.824219 16.417969 420.855469 17.941406 424.417969 20.984375 C 427.976563 24.042969 429.9375 28.09375 430.300781 33.164063 L 419.371094 33.65625 C 419.089844 31.011719 418.132813 28.972656 416.496094 27.566406 C 414.855469 26.160156 412.445313 25.449219 409.246094 25.449219 C 406.097656 25.449219 403.839844 26.003906 402.496094 27.113281 C 401.144531 28.222656 400.472656 29.617188 400.472656 31.308594 C 400.472656 32.894531 401.09375 34.210938 402.332031 35.242188 C 403.554688 36.300781 406.289063 37.746094 410.523438 39.589844 C 416.910156 42.335938 420.960938 44.558594 422.699219 46.273438 C 425.292969 48.800781 426.597656 52.039063 426.597656 55.988281 C 426.597656 60.875 424.664063 65.058594 420.792969 68.515625 C 416.921875 71.984375 411.542969 73.714844 404.625 73.714844 C 399.867188 73.714844 395.738281 72.914063 392.253906 71.3125 C 388.757813 69.714844 386.292969 67.496094 384.859375 64.644531 C 383.429688 61.792969 382.757813 58.53125 382.863281 54.8125 Z M 382.863281 54.8125 "/>
</g>
</svg>
